PathFileType	4	(X/Y/Z)	C:/Users/opensim2020/Desktop/walking_exp_matlab/subject06_walking14_straight_01.trc																																																																																																																																					
DataRate	CameraRate	NumFrames	NumMarkers	Units	OrigDataRate	OrigDataStartFrame	OrigNumFrames																																																																																																																																	
100	100	8	45	mm	100	835	203																																																																																																																																	
Frame#	Time	LFHD			RFHD			LBHD			RBHD			C7			T10			CLAV			STRN			RBAK			LSHO			LUPA			LELB			LFRM			LWRA			LWRB			LFIN			RSHO			RUPA			RELB			RFRM			RWRA			RWRB			RFIN			LASI			RASI			LPSI			RPSI			LTHI			LKNE			LTIB			LANK			LHEE			LTOE			RTHI			RKNE			RTIB			RANK			RHEE			RTOE			*39			*40			*41			*42			*43			*44		
		X1	Y1	Z1	X2	Y2	Z2	X3	Y3	Z3	X4	Y4	Z4	X5	Y5	Z5	X6	Y6	Z6	X7	Y7	Z7	X8	Y8	Z8	X9	Y9	Z9	X10	Y10	Z10	X11	Y11	Z11	X12	Y12	Z12	X13	Y13	Z13	X14	Y14	Z14	X15	Y15	Z15	X16	Y16	Z16	X17	Y17	Z17	X18	Y18	Z18	X19	Y19	Z19	X20	Y20	Z20	X21	Y21	Z21	X22	Y22	Z22	X23	Y23	Z23	X24	Y24	Z24	X25	Y25	Z25	X26	Y26	Z26	X27	Y27	Z27	X28	Y28	Z28	X29	Y29	Z29	X30	Y30	Z30	X31	Y31	Z31	X32	Y32	Z32	X33	Y33	Z33	X34	Y34	Z34	X35	Y35	Z35	X36	Y36	Z36	X37	Y37	Z37	X38	Y38	Z38	X39	Y39	Z39	X40	Y40	Z40	X41	Y41	Z41	X42	Y42	Z42	X43	Y43	Z43	X44	Y44	Z44	X45	Y45	Z45
																																																																																																																																								
26	0.25	-1005.70081	1668.04602	1350.38708	-1004.87018	1656.09155	1481.55103	-1141.50903	1618.71484	1350.15808	-1138.88953	1612.09326	1479.39417	-1148.69214	1460.20239	1403.01294	-1194.17749	1132.28491	1410.15369	-1040.62976	1379.19287	1407.17566	-1006.84277	1203.60278	1401.52283	-1230.00293	1292.13489	1479.69666	-1088.81506	1414.02808	1244.02356	-1083.20508	1213.47607	1165.89087	-1084.08569	1101.09119	1149.5022	-1041.90796	958.12244	1121.76233	-963.28558	853.27527	1155.92139	-1024.53308	839.65851	1123.29211	-971.53729	767.06659	1115.86035	-1091.66199	1412.0072	1566.00745	-1133.29773	1214.79907	1652.38403	-1125.38586	1093.55237	1667.828	-1112.8114	974.69373	1689.69263	-1052.33447	833.70795	1667.74854	-1110.12976	836.76373	1703.24146	-1074.31067	760.62341	1710.96729	-1019.89252	969.56213	1305.05225	-1024.79236	974.26007	1525.5448	-1176.62012	1000.02264	1330.2677	-1175.91443	996.71637	1498.12793	-1103.3866	657.81543	1247.31067	-1119.62732	494.36627	1269.125	-1165.83655	240.54459	1280.25647	-1173.7627	70.27576	1330.73206	-1213.85437	57.56245	1376.33667	-1028.02698	40.09058	1329.98425	-1016.04144	644.15424	1585.90308	-974.66278	524.979	1568.19641	-1128.50171	321.41904	1568.46216	-1250.88831	180.91148	1529.78381	-1297.34033	178.70953	1483.69141	-1146.57776	69.54216	1539.02173	-1103.98926	1709.89844	1410.08533	NaN	NaN	NaN	NaN	NaN	NaN	NaN	NaN	NaN	NaN	NaN	NaN	NaN	NaN	NaN
27	0.26	-997.67523	1668.22339	1349.60681	-996.96521	1656.10132	1480.72668	-1133.48816	1619.05322	1349.17981	-1131.07312	1612.34924	1478.42261	-1140.85852	1460.40674	1401.97632	-1186.37061	1132.52283	1408.89844	-1032.67932	1379.53784	1406.36853	-998.93042	1203.89563	1400.51318	-1222.25232	1292.33765	1478.25134	-1080.94922	1414.5304	1243.03882	-1073.09253	1214.20557	1164.81604	-1071.32727	1101.75769	1148.43213	-1025.9873	959.83527	1120.75317	-944.88776	856.91602	1154.75696	-1005.92981	841.70233	1122.51221	-951.38892	770.41443	1114.89734	-1084.17383	1412.24915	1565.0127	-1127.26526	1215.27014	1651.11523	-1119.53455	1093.62964	1666.63525	-1108.67236	974.99707	1688.10791	-1048.86633	833.53394	1665.91638	-1106.91003	836.97766	1701.33276	-1071.52637	760.20874	1708.64819	-1012.68506	969.27429	1303.63733	-1015.76294	975.16205	1524.48901	-1169.14258	1000.08264	1329.54114	-1167.57556	997.48053	1497.38696	-1097.61633	657.60461	1247.3186	-1114.53162	494.0741	1269.0968	-1163.41699	240.77296	1280.34534	-1173.38171	70.5265	1330.78796	-1213.57666	57.92778	1376.46375	-1027.8374	40.02726	1329.96973	-1004.70477	646.24878	1584.7262	-961.94989	527.56738	1566.24426	-1110.0238	318.53763	1566.08154	-1225.9386	172.67982	1526.85278	-1271.09192	167.20029	1480.2782	-1115.92615	67.80354	1538.85437	-1095.9303	1710.15698	1409.20129	NaN	NaN	NaN	NaN	NaN	NaN	NaN	NaN	NaN	NaN	NaN	NaN	NaN	NaN	NaN
28	0.27	-989.41821	1667.99084	1348.98926	-989.10773	1656.11804	1480.02832	-1125.39868	1619.13965	1348.28748	-1123.19141	1612.38928	1477.48511	-1132.89026	1460.45691	1401.00867	-1178.54956	1132.6145	1407.70447	-1024.82874	1379.60632	1405.47961	-991.02234	1204.03015	1399.51099	-1214.42944	1292.41223	1476.84326	-1073.08264	1414.96875	1242.15503	-1063.07019	1214.83606	1163.85315	-1058.87744	1102.45654	1147.44189	-1010.22449	961.55927	1119.95459	-926.63196	860.84283	1153.82288	-987.68091	844.05316	1121.92261	-931.20697	774.02606	1114.20129	-1076.51611	1412.26123	1564.12158	-1121.23132	1215.51697	1649.91028	-1114.98938	1093.99768	1665.16931	-1104.19409	974.96661	1686.70117	-1045.48376	833.21393	1664.16626	-1103.39331	836.8053	1699.61987	-1068.80176	759.76172	1706.43311	-1005.35486	968.8941	1302.18909	-1007.24927	975.7511	1522.80151	-1161.56726	1000.0531	1328.87427	-1159.17334	998.07855	1496.75757	-1091.61523	657.19061	1247.05591	-1109.33203	493.67352	1269.09827	-1161.03748	240.97319	1280.45874	-1172.94153	70.75897	1330.93762	-1213.32227	58.27449	1376.59619	-1027.64246	39.98339	1329.94165	-993.33618	648.28229	1583.84412	-949.69751	529.8653	1564.55701	-1091.40271	315.19144	1563.85754	-1200.24268	164.1123	1523.98364	-1244.79883	156.02985	1476.91089	-1085.14832	65.79658	1538.49402	-1087.88916	1710.19678	1408.37781	NaN	NaN	NaN	NaN	NaN	NaN	NaN	NaN	NaN	NaN	NaN	NaN	NaN	NaN	NaN
29	0.28	-981.36554	1667.87256	1348.28223	-981.22809	1655.95618	1479.29944	-1117.38367	1618.99915	1347.44434	-1115.29138	1612.25452	1476.62952	-1124.89722	1460.33899	1400.1272	-1170.64197	1132.58264	1406.6062	-1016.90338	1379.52112	1404.67969	-983.17706	1203.93164	1398.49353	-1206.51416	1292.3717	1475.50562	-1065.05103	1415.23901	1241.29358	-1053.16187	1215.28528	1162.94995	-1046.58887	1103.06409	1146.53699	-994.7337	963.32239	1119.21985	-908.39764	864.92249	1153.04626	-968.92035	846.24817	1121.71973	-910.65979	777.83972	1113.91687	-1068.76904	1412.08752	1563.21497	-1115.11304	1215.59143	1648.74854	-1109.75964	1094.00085	1663.96301	-1099.84985	974.85754	1685.22913	-1042.10718	832.68707	1662.53308	-1100.20923	836.81818	1697.9408	-1066.06531	759.0744	1704.33765	-997.87225	968.40131	1300.84033	-999.41614	975.88873	1521.07825	-1153.96533	999.79596	1328.21057	-1150.80676	998.52771	1496.10425	-1085.65637	656.62805	1247.1626	-1103.99927	493.17584	1269.16443	-1158.48657	240.98726	1280.60193	-1172.54492	70.94818	1331.17688	-1212.83337	58.55589	1376.64783	-1027.54236	39.89435	1329.93103	-982.51416	649.75006	1582.7428	-937.93134	531.94373	1563.09326	-1072.51953	311.51315	1561.64331	-1173.89429	155.35634	1521.23511	-1217.71301	144.99202	1473.57043	-1054.10168	63.48775	1538.02209	-1079.95923	1710.07324	1407.55457	NaN	NaN	NaN	NaN	NaN	NaN	NaN	NaN	NaN	NaN	NaN	NaN	NaN	NaN	NaN
30	0.29	-973.35126	1667.63831	1347.64258	-973.36066	1655.71521	1478.66968	-1109.396	1618.69739	1346.66919	-1107.38086	1611.89063	1475.84839	-1116.87622	1460.1344	1399.33972	-1162.74487	1132.41809	1405.5509	-1008.86224	1379.26147	1403.94043	-975.23926	1203.69104	1397.43347	-1198.55176	1292.17786	1474.24048	-1056.9165	1415.37793	1240.56506	-1043.41162	1215.6488	1162.14636	-1034.72937	1103.44507	1145.74756	-979.35693	964.97034	1118.66772	-890.2594	869.16217	1152.57837	-950.5318	848.60089	1121.56604	-890.47528	781.84247	1113.76501	-1060.92432	1411.70593	1562.44385	-1108.92712	1215.5293	1647.64282	-1104.51794	1093.87097	1662.75659	-1095.67456	974.68909	1683.85986	-1038.81921	832.00354	1660.99097	-1096.76501	836.31091	1696.38477	-1063.5293	758.40222	1702.50977	-990.34979	967.68488	1299.63403	-991.06274	976.0683	1519.59131	-1146.39758	999.43622	1327.58569	-1142.50854	998.80499	1495.47668	-1079.72522	656.03613	1246.995	-1098.63586	492.59668	1269.3241	-1155.93127	240.8656	1280.75122	-1172.30029	71.15493	1331.59399	-1212.67529	58.90755	1376.90271	-1027.45068	39.8218	1329.94751	-971.73315	651.19739	1582.13599	-926.63898	533.58026	1561.7854	-1053.62292	307.67642	1559.56152	-1147.00745	146.58856	1518.60437	-1189.93494	134.11287	1470.45667	-1022.77631	61.24504	1537.29626	-1072.07727	1709.77808	1406.83594	NaN	NaN	NaN	NaN	NaN	NaN	NaN	NaN	NaN	NaN	NaN	NaN	NaN	NaN	NaN
31	0.3	-965.44482	1667.2373	1347.02344	-965.48389	1655.38171	1478.06177	-1101.34998	1618.21289	1345.99146	-1099.44202	1611.38696	1475.1488	-1108.69727	1459.69568	1398.58167	-1154.79932	1132.12109	1404.58167	-1000.65948	1378.85437	1403.29468	-967.18323	1203.29541	1396.52307	-1190.57715	1291.81726	1473.07495	-1048.72595	1415.28857	1239.85693	-1033.61963	1215.80127	1161.37781	-1023.1571	1103.69385	1144.91052	-964.2652	966.60767	1118.16724	-872.41968	873.51434	1152.3009	-932.30017	851.1059	1121.7301	-870.06451	786.04108	1113.88098	-1052.99487	1411.12866	1561.77454	-1102.57874	1215.18262	1646.6062	-1099.37207	1093.56421	1661.50549	-1091.00378	974.1181	1682.58875	-1035.40686	831.00464	1659.6145	-1093.69348	836.00366	1694.92114	-1060.99646	757.61261	1700.87744	-982.88605	966.6593	1298.3324	-982.42456	976.3573	1518.5387	-1138.77075	998.86145	1326.99292	-1134.19043	998.85547	1494.90796	-1073.5481	655.3396	1246.75012	-1093.22412	492.00012	1269.48901	-1153.68347	240.77721	1280.81616	-1171.91052	71.30888	1331.79932	-1212.46814	59.17597	1377.16638	-1027.42041	39.79881	1329.96594	-960.66718	652.22839	1581.64502	-915.61877	534.85626	1560.58643	-1034.78711	303.69531	1557.60217	-1119.57043	137.92538	1516.17737	-1161.34265	123.30948	1467.52026	-991.44885	59.1319	1536.66553	-1064.21399	1709.31335	1406.14038	NaN	NaN	NaN	NaN	NaN	NaN	NaN	NaN	NaN	NaN	NaN	NaN	NaN	NaN	NaN
32	0.31	-957.50702	1666.76367	1346.42261	-957.45941	1654.82727	1477.4397	-1093.26184	1617.49951	1345.36145	-1091.43433	1610.7384	1474.52673	-1100.51135	1459.20154	1397.93713	-1146.79834	1131.67664	1403.70581	-992.49103	1378.33435	1402.66504	-959.08301	1202.72229	1395.67224	-1182.51038	1291.25183	1472.01636	-1040.4375	1415.00928	1239.19897	-1023.77826	1215.76685	1160.66797	-1011.66119	1103.81506	1144.12048	-949.20563	968.11066	1117.76501	-854.77032	877.93073	1152.24353	-913.94073	853.56622	1122.0321	-849.72974	790.43494	1114.2251	-1044.96277	1410.39368	1561.16809	-1096.0437	1214.65295	1645.63123	-1093.52295	1092.94373	1660.47888	-1086.66345	973.52716	1681.35706	-1032.29126	830.01031	1658.45142	-1090.26599	835.16101	1693.52698	-1058.48083	756.62592	1699.56409	-975.16498	965.92468	1297.29968	-974.3385	976.12885	1517.07446	-1131.05847	998.10236	1326.49011	-1125.92737	998.67419	1494.3988	-1067.35852	654.48853	1246.86292	-1087.82422	491.33112	1269.7002	-1151.31152	240.85213	1281.23779	-1171.5481	71.48459	1331.9718	-1212.30957	59.42271	1377.4281	-1027.54114	39.71388	1330.0271	-951.07825	653.06549	1581.10828	-904.93018	535.84784	1559.56238	-1015.93475	299.68729	1555.7251	-1091.67175	129.52211	1513.92859	-1132.38806	113.02938	1464.97266	-959.76563	57.34897	1535.64355	-1056.2666	1708.6731	1405.50378	NaN	NaN	NaN	NaN	NaN	NaN	NaN	NaN	NaN	NaN	NaN	NaN	NaN	NaN	NaN
33	0.32	-949.49695	1666.16565	1345.90503	-949.52283	1654.25464	1476.9325	-1085.14526	1616.62915	1344.84912	-1083.38086	1609.91797	1473.99536	-1092.21912	1458.51733	1397.33948	-1138.776	1131.06689	1402.90894	-984.41467	1377.50903	1402.02917	-951.11481	1201.95105	1394.68689	-1174.40674	1290.57849	1471.09888	-1032.07935	1414.56409	1238.64709	-1013.88562	1215.53918	1159.94092	-1000.34167	1103.67822	1143.36584	-934.2536	969.52655	1117.49158	-837.26819	882.39203	1152.44702	-895.69086	856.11212	1122.51697	-829.66974	794.93164	1114.83105	-1036.87415	1409.43323	1560.61023	-1089.3877	1213.92065	1644.6405	-1087.8844	1092.2052	1659.39294	-1082.00073	972.63043	1680.20374	-1028.78943	828.51642	1657.28162	-1087.07739	834.39801	1692.30237	-1055.97314	755.53546	1698.30688	-967.43835	964.82574	1296.3252	-966.21362	975.8031	1515.7218	-1123.37427	997.25732	1326.03088	-1117.63928	998.2594	1493.95959	-1060.92957	653.58746	1246.74255	-1082.37573	490.5679	1269.89111	-1148.45349	240.8194	1281.875	-1171.28174	71.66272	1332.29578	-1212.28625	59.72559	1377.88318	-1027.5437	39.77917	1330.07996	-940.96771	653.38477	1580.84143	-894.60968	536.41052	1558.52307	-996.93909	295.59271	1554.07422	-1063.47681	121.61729	1511.96497	-1103.13806	103.33399	1462.89355	-928.30518	55.88069	1534.66309	-1048.39502	1707.92334	1404.98047	NaN	NaN	NaN	NaN	NaN	NaN	NaN	NaN	NaN	NaN	NaN	NaN	NaN	NaN	NaN
